<svg height="64" preserveAspectRatio="none" viewBox="0 0 64 64" width="64" xmlns="http://www.w3.org/2000/svg"><path d="m62.2050781 50.2050781c0 6.6269531-5.3730469 12-12 12h-36.4101562c-6.6269531 0-12-5.3730469-12-12v-36.4101562c0-6.6269531 5.3730469-12 12-12h36.4101563c6.6269531 0 12 5.3730469 12 12v36.4101562z" fill="#4ff227"/><g fill="#fff"><path d="m2.6738281 27.5859375s-.0058594-10.9199219-.0283203-13.859375c-.0273438-3.5996094 3.2431641-10.8896484 10.375-10.8896484h16.8027344s-12.7050781.8144531-16.8037109 1.633789c-4.0976563.8203125-7.4931641 6.0439453-8.4423828 9.2626953-1.3789063 4.6816407-1.9033204 13.8525391-1.9033204 13.8525391z"/><path d="m2.671875 13.3681641c-.0322266.3535156-.0537109.7099609-.0537109 1.0712891v12.59375c.0058594.0058594.0117188.0117188.0166016.0175781z" opacity=".28"/><path d="m60.1064453 23.5693359c1.1884766-5.8017578 1.2216797-9.4169922 1.2216797-10.1933594-.5380859-5.9482422-5.53125-10.609375-11.6181641-10.609375h-35.4189453c-6.0761719 0-11.0625 4.6416016-11.6171875 10.5722656.0195313.3486329.4970703 4.0341798 1.2929688 10.3066407 7.2392578 7.0546875 17.125 11.4091797 28.0332031 11.4091797 10.9453125 0 20.859375-4.3857422 28.1064453-11.4853516z" opacity=".28"/><path d="m61.328125 13.3789063.0390625 13.6669922c.0048828-.0048828.0097656-.0097656.0146484-.0146484v-12.591797c0-.3583984-.0224609-.7109375-.0537109-1.0605468z" opacity=".28"/></g><path d="m62.3076172 30.6572266s.0068359 13.9111328.0361328 17.6572266c.0361328 4.5849609-4.2685547 13.8730468-13.6591797 13.8730468-8.7363281 0-22.1142578 0-22.1142578 0s16.7246094-1.0380859 22.1191406-2.0820313c5.3925781-1.0449219 9.8603516-7.6982422 11.1113281-11.8007813 1.8144532-5.9638671 2.506836-17.6474608 2.506836-17.6474608z" fill="#21c10a"/><path d="m50.2050781 63.2050781h-36.4101562c-7.1679688 0-13-5.8320313-13-13v-36.4101562c0-7.1679688 5.8320313-13 13-13h36.4101563c7.1679688 0 13 5.8320313 13 13v36.4101563c-.0000001 7.1679687-5.8320313 12.9999999-13.0000001 12.9999999zm-36.4101562-60.4101562c-6.0654297 0-11 4.9345703-11 11v36.4101563c0 6.0654297 4.9345703 11 11 11h36.4101563c6.0654297 0 11-4.9345703 11-11v-36.4101563c0-6.0654297-4.9345703-11-11-11z" fill="#0e8704"/><path d="m28.4277344 50.84375-18.0898438-18.0751953 5.9785156-5.9785156 12.1035156 12.1044922 24.828125-24.828125v11.9570313zm-.0146485-2.8271484.0068359.0068359 22.828125-22.828125v-6.3007813l-22.828125 22.828125-12.1035155-12.1044921-3.1503906 3.1503906z" fill="#6aea3b"/><path d="m28.4199219 40.3085938-12.1035156-12.1044922-4.5644532 4.5644531 16.6601563 16.6611328.0078125-.0078125.0078125.0078125 23.8203125-23.8203125v-9.1289062z" fill="#fff"/></svg>